<?xml version="1.0" encoding="iso-8859-1"?>
<!-- Generator: Adobe Illustrator 29.2.1, SVG Export Plug-In . SVG Version: 9.03 Build 55982)  -->
<svg version="1.1" id="PRINT" xmlns="http://www.w3.org/2000/svg" xmlns:xlink="http://www.w3.org/1999/xlink" x="0px" y="0px"
	 viewBox="0 0 142.25 43.06" style="enable-background:new 0 0 142.25 43.06;" xml:space="preserve">
<g style="display:none;">
	<g style="display:inline;">
		<g>
			<path style="fill:#FFFFFF;" d="M-645.585,71.568l-0.117,0.462c-0.865,3.4-1.702,6.869-6.684,6.869
				c-4.45,0-5.432-2.833-4.504-7.008l2.621-11.82c1.029-4.588,2.445-7.005,6.445-7.005c5.284,0,5.393,3.8,4.61,6.854l-0.102,0.402
				h-3.442l0.188-0.851c0.477-2.188,0.336-3.541-1.454-3.541c-1.501,0-2.06,1.195-2.588,3.56l-2.813,12.724
				c-0.543,2.518-0.341,3.845,1.399,3.845c1.541,0,2.104-1.267,2.694-3.639l0.211-0.854H-645.585z"/>
			<path style="fill:#FFFFFF;" d="M-627.048,71.23l-2.651,7.316h-3.603c0.936-2.384,8.521-22.46,9.573-25.125h5.122l-1.37,25.125
				h-3.454l0.469-7.316H-627.048z M-622.757,68.18c0.313-4.278,0.607-9.133,0.841-11.726h-0.133
				c-0.556,2.074-2.417,7.489-3.899,11.726H-622.757z"/>
			<path style="fill:#FFFFFF;" d="M-590.364,68.72c0.986-4.411,2.132-9.316,2.84-12.115h-0.039
				c-1.549,4.3-5.464,14.584-8.284,21.941h-3.254c0.513-6.5,1.281-17.464,1.68-21.967h-0.078c-0.575,2.923-1.792,8.35-2.704,12.664
				l-1.948,9.303h-3.207l5.555-25.125h5.189c-0.517,7.562-0.972,15.026-1.371,18.443h0.039c1.17-3.383,4.779-12.541,7.23-18.443
				h5.103l-5.556,25.125h-3.368L-590.364,68.72z"/>
			<path style="fill:#FFFFFF;" d="M-564.016,53.421l-5.556,25.125h-3.426l5.555-25.125H-564.016z"/>
			<path style="fill:#FFFFFF;" d="M-547.812,53.421h3.426l-4.886,22.103h6.456l-0.948,3.023h-9.604L-547.812,53.421z"/>
			<path style="fill:#FFFFFF;" d="M-524.377,71.23l-2.651,7.316h-3.603c0.936-2.384,8.521-22.46,9.573-25.125h5.122l-1.37,25.125
				h-3.454l0.469-7.316H-524.377z M-520.086,68.18c0.313-4.278,0.607-9.133,0.841-11.726h-0.133
				c-0.556,2.074-2.417,7.489-3.899,11.726H-520.086z"/>
			<path style="fill:#FFFFFF;" d="M-655.033,113.941l1.146-25.125h3.493l-0.818,10.566c-0.278,3.438-0.712,8.612-1.002,10.983h0.066
				c0.779-2.54,2.566-7.365,3.837-10.9l3.856-10.649h3.653l-9.953,25.125H-655.033z"/>
			<path style="fill:#FFFFFF;" d="M-622.707,88.815l-5.556,25.125h-3.426l5.555-25.125H-622.707z"/>
			<path style="fill:#FFFFFF;" d="M-606.503,88.815h3.427l-4.886,22.103h6.456l-0.948,3.023h-9.604L-606.503,88.815z"/>
			<path style="fill:#FFFFFF;" d="M-582.361,88.815h3.426l-4.886,22.103h6.456l-0.948,3.023h-9.604L-582.361,88.815z"/>
			<path style="fill:#FFFFFF;" d="M-558.926,106.624l-2.651,7.316h-3.603c0.936-2.384,8.521-22.46,9.573-25.125h5.122l-1.37,25.125
				h-3.454l0.469-7.316H-558.926z M-554.635,103.575c0.313-4.278,0.607-9.133,0.841-11.726h-0.133
				c-0.556,2.074-2.417,7.489-3.899,11.726H-554.635z"/>
			<path style="fill:#FFFFFF;" d="M-531.652,88.815h3.427l-4.886,22.103h6.456l-0.948,3.023h-9.604L-531.652,88.815z"/>
			<path style="fill:#FFFFFF;" d="M-497.671,95.496l-2.672,12.068c-0.927,4.213-2.312,6.729-6.84,6.729
				c-4.493,0-5.69-2.866-4.798-7.035l2.727-12.573c0.892-4.131,3.029-6.225,6.66-6.225
				C-498.478,88.462-496.708,91.184-497.671,95.496z M-505.734,94.702l-2.864,13.074c-0.493,2.194-0.161,3.68,1.779,3.68
				c1.658,0,2.409-1.293,2.928-3.575l2.864-13.006c0.481-2.191-0.003-3.548-1.873-3.548
				C-504.413,91.326-505.261,92.495-505.734,94.702z"/>
			<path style="fill:#FFFFFF;" d="M-480.383,88.815h4.896c4.023,0,5.397,2.238,4.685,6.042l-0.25,1.313
				c-0.509,2.621-1.772,4.152-3.728,4.543c1.956,0.805,2.691,2.633,2.183,5.19l-0.329,1.652c-0.794,4.048-2.501,6.386-7.282,6.386
				h-5.729L-480.383,88.815z M-481.952,111.181h1.951c2.374,0,3.093-1.229,3.637-3.981l0.329-1.678
				c0.403-2.117,0.227-3.586-2.612-3.586h-1.244L-481.952,111.181z M-477.919,99.203c2.322,0,3.057-0.778,3.578-3.462l0.195-1.023
				c0.364-2.004,0.027-3.117-2.351-3.117h-1.133l-1.658,7.602H-477.919z"/>
			<path style="fill:#FFFFFF;" d="M-443.558,95.496l-2.672,12.068c-0.927,4.213-2.312,6.729-6.84,6.729
				c-4.493,0-5.69-2.866-4.798-7.035l2.727-12.573c0.892-4.131,3.029-6.225,6.66-6.225
				C-444.365,88.462-442.595,91.184-443.558,95.496z M-451.621,94.702l-2.864,13.074c-0.493,2.194-0.161,3.68,1.779,3.68
				c1.658,0,2.409-1.293,2.928-3.575l2.864-13.006c0.481-2.191-0.003-3.548-1.873-3.548
				C-450.299,91.326-451.148,92.495-451.621,94.702z"/>
			<path style="fill:#FFFFFF;" d="M-427.878,107.317l-0.117,0.666c-0.407,2.293,0.003,3.553,1.814,3.553
				c1.541,0,2.358-1.176,2.785-3.315c0.477-2.425,0.133-3.922-2.254-6.529c-2.692-2.927-3.494-4.585-2.817-8.061
				c0.642-3.345,2.501-5.168,5.737-5.168c4.779,0,5.37,3.379,4.814,6.414l-0.102,0.552h-3.431l0.102-0.563
				c0.348-1.918,0.325-3.617-1.474-3.617c-1.349,0-1.994,0.943-2.287,2.597c-0.344,1.947,0.012,3.154,1.885,5.23
				c3.288,3.605,4.023,5.82,3.252,9.454c-0.779,3.619-2.63,5.766-6.532,5.766c-4.414,0-5.718-2.689-4.908-6.557l0.09-0.421H-427.878
				z"/>
		</g>
	</g>
</g>
<path style="fill:#8C8A85;" d="M2.39,12.767c0,2.985,1.922,4.852,4.486,4.852c1.429,0,2.71-0.622,3.549-1.972l1.799,1.194
	c-1.035,1.921-2.982,2.958-5.324,2.958c-4.017,0-6.9-2.932-6.9-7.032s2.883-7.006,6.9-7.006c2.342,0,4.288,1.012,5.324,2.933
	l-1.799,1.219C9.586,8.564,8.305,7.94,6.876,7.94C4.312,7.94,2.39,9.835,2.39,12.767z M25.637,11.34v8.304h-2.242v-1.816
	c-0.789,1.246-2.242,1.971-4.288,1.971c-2.957,0-4.83-1.661-4.83-4.047c0-2.206,1.355-4.023,5.249-4.023h3.745v-0.492
	c0-2.102-1.158-3.322-3.499-3.322c-1.553,0-3.13,0.57-4.141,1.479l-0.985-1.869c1.354-1.141,3.302-1.764,5.397-1.764
	C23.616,5.761,25.637,7.577,25.637,11.34z M23.271,13.52h-3.647c-2.341,0-3.006,0.96-3.006,2.128c0,1.376,1.084,2.232,2.883,2.232
	c1.775,0,3.18-0.857,3.771-2.439V13.52z M46.371,5.761c-2.218,0-4.041,0.986-5.028,2.543c-0.862-1.713-2.538-2.543-4.534-2.543
	c-1.972,0-3.574,0.779-4.51,2.179v-2.05h-2.268v13.753h2.366v-7.085c0-2.983,1.553-4.567,3.919-4.567
	c2.144,0,3.376,1.324,3.376,4.023v7.629h2.366v-7.085c0-2.983,1.552-4.567,3.918-4.567c2.144,0,3.376,1.324,3.376,4.023v6.142v1.487
	v23.261h2.366V19.644v-1.487v-6.428C51.719,7.682,49.55,5.761,46.371,5.761z M58.525,5.891H56.16v13.753h0.001v23.261h2.366V18.157
	h-0.001V5.891z M57.342,0c-0.912,0-1.601,0.727-1.601,1.635c0,0.908,0.689,1.608,1.601,1.608c0.937,0,1.602-0.726,1.602-1.661
	C58.945,0.7,58.254,0,57.342,0z M33.341,40.181l-4.486-11.028H26.39l5.717,13.753h2.415l5.718-13.753h-2.317L33.341,40.181z
	 M43.649,23.261c-0.912,0-1.601,0.727-1.601,1.635c0,0.908,0.689,1.608,1.601,1.608c0.937,0,1.602-0.726,1.602-1.661
	C45.251,23.962,44.561,23.261,43.649,23.261z M42.466,42.905h2.366V29.152h-2.366V42.905z M73.454,34.601v8.304h-2.242v-1.816
	c-0.789,1.246-2.242,1.971-4.288,1.971c-2.957,0-4.83-1.661-4.83-4.047c0-2.206,1.355-4.023,5.249-4.023h3.745v-0.492
	c0-2.102-1.158-3.322-3.499-3.322c-1.553,0-3.13,0.57-4.141,1.479l-0.985-1.869c1.354-1.141,3.302-1.764,5.397-1.764
	C71.433,29.022,73.454,30.838,73.454,34.601z M71.088,36.781h-3.647c-2.341,0-3.006,0.96-3.006,2.128
	c0,1.376,1.084,2.232,2.883,2.232c1.775,0,3.18-0.857,3.771-2.439V36.781z M77.849,42.905h2.366V23.651h-2.366V42.905z M97.1,36.029
	c0,4.1-2.859,7.032-6.777,7.032c-3.919,0-6.802-2.932-6.802-7.032s2.883-7.006,6.802-7.006C94.241,29.022,97.1,31.928,97.1,36.029z
	 M94.709,36.029c0-2.933-1.873-4.827-4.387-4.827s-4.412,1.894-4.412,4.827c0,2.932,1.898,4.852,4.412,4.852
	S94.709,38.96,94.709,36.029z M113.916,36.029c0,4.204-2.785,7.032-6.605,7.032c-1.922,0-3.598-0.779-4.657-2.335v2.179h-2.268
	V23.651h2.366v7.577c1.085-1.479,2.711-2.206,4.559-2.206C111.131,29.022,113.916,31.825,113.916,36.029z M111.525,36.029
	c0-2.933-1.897-4.827-4.411-4.827c-2.489,0-4.387,1.894-4.387,4.827c0,2.932,1.897,4.852,4.387,4.852
	C109.628,40.881,111.525,38.96,111.525,36.029z M129.574,36.029c0,4.1-2.859,7.032-6.778,7.032c-3.919,0-6.802-2.932-6.802-7.032
	s2.883-7.006,6.802-7.006C126.714,29.022,129.574,31.928,129.574,36.029z M127.183,36.029c0-2.933-1.873-4.827-4.387-4.827
	s-4.412,1.894-4.412,4.827c0,2.932,1.898,4.852,4.412,4.852S127.183,38.96,127.183,36.029z M133.969,33.044
	c0-1.089,1.011-1.894,3.081-1.894c1.281,0,2.588,0.285,3.771,1.09l1.01-1.972c-1.134-0.779-3.056-1.246-4.757-1.246
	c-3.351,0-5.446,1.661-5.446,4.125c0,5.476,8.256,2.803,8.256,5.891c0,1.168-0.912,1.869-3.105,1.869
	c-1.701,0-3.476-0.597-4.584-1.427l-0.985,1.971c1.084,0.909,3.228,1.609,5.397,1.609c3.475,0,5.644-1.583,5.644-4.074
	C142.25,33.641,133.969,36.289,133.969,33.044z"/>
</svg>
